<?xml version="1.0" encoding="UTF-8"?>
<svg id="Layer_1" data-name="Layer 1" xmlns="http://www.w3.org/2000/svg" xmlns:xlink="http://www.w3.org/1999/xlink" viewBox="0 0 2211.02 708.66">
  <defs>
    <style>
      .cls-1 {
        fill: url(#linear-gradient-3);
      }

      .cls-2 {
        fill: url(#linear-gradient-2);
      }

      .cls-3 {
        fill: url(#linear-gradient);
      }

      .cls-4 {
        fill: #263574;
      }
    </style>
    <linearGradient id="linear-gradient" x1="1100.67" y1="187.25" x2="1106.41" y2="482.96" gradientUnits="userSpaceOnUse">
      <stop offset="0" stop-color="#4589c8"/>
      <stop offset="1" stop-color="#376bb4"/>
    </linearGradient>
    <linearGradient id="linear-gradient-2" x1="434.4" y1="200.19" x2="440.14" y2="495.9" xlink:href="#linear-gradient"/>
    <linearGradient id="linear-gradient-3" x1="434.4" y1="200.19" x2="440.14" y2="495.9" gradientUnits="userSpaceOnUse">
      <stop offset="0" stop-color="#3ebfed"/>
      <stop offset="1" stop-color="#3999d4"/>
    </linearGradient>
  </defs>
  <path class="cls-3" d="M118.63,246.02h83.79c25.14,0,45.49,4.79,62.25,17.36,16.76,12.57,27.23,31.72,27.23,56.86s-10.48,44.29-27.23,56.86c-16.76,12.57-37.11,17.66-62.25,17.66h-22.14v67.93h-61.65v-216.66ZM197.33,346.57c11.97,0,18.55-1.8,24.24-5.99,5.69-4.19,8.68-11.37,8.68-19.75s-2.99-15.56-8.68-19.75c-5.69-4.19-12.27-5.98-24.24-5.98h-17.06v51.47h17.06ZM645.71,246.02v117.61c0,15.56,3.29,26.93,10.17,34.71,6.88,7.48,16.76,12.27,29.63,12.27s22.74-4.79,29.63-12.27,10.17-18.85,10.17-34.71v-117.61h59.25v122.99c0,25.74-6.88,50.27-23.94,68.23-17.06,17.96-44.89,28.73-76.31,28.73s-59.25-10.77-76.31-28.73c-17.06-17.95-23.94-43.09-23.94-68.23v-122.99h61.65ZM923.73,465.97c-71.82,0-120.3-47.88-120.3-111.02s50.87-112.22,121.2-112.22c22.14,0,43.39,4.79,60.15,13.47v58.95c-16.16-9.88-37.41-17.66-58.36-17.66-36.51,0-61.35,23.64-61.35,56.56s23.34,57.16,62.84,57.16c20.95,0,42.2-7.48,59.85-18.55v58.65c-18.26,9.88-42.2,14.66-64.04,14.66ZM1007.83,246.02h61.65v78.1h77.21v-78.1h61.64v216.66h-61.64v-86.48h-77.21v86.48h-61.65v-216.66ZM1425.91,465.97c-71.82,0-120.3-47.88-120.3-111.02s50.87-112.22,121.2-112.22c22.14,0,43.39,4.79,60.15,13.47v58.95c-16.16-9.88-37.41-17.66-58.36-17.66-36.51,0-61.35,23.64-61.35,56.56s23.34,57.16,62.84,57.16c20.95,0,42.19-7.48,59.85-18.55v58.65c-18.26,9.88-42.2,14.66-64.04,14.66ZM1585.73,246.02h63.74l86.19,216.66h-67.03l-15.26-44.29h-74.21l-15.86,44.29h-63.74l86.19-216.66ZM1637.5,372.9l-7.18-20.65c-4.19-12.27-9.28-27.23-13.17-40.4h-.6c-4.19,13.47-9.28,28.43-13.77,41l-7.18,20.05h41.89ZM1747.34,246.02h87.08c23.64,0,42.79,4.79,58.65,16.46,15.86,11.67,25.73,29.63,25.73,52.97,0,27.53-13.76,48.48-36.81,59.85l54.47,87.38h-68.53l-45.19-77.81h-14.36v77.81h-61.05v-216.66ZM1828.14,340.88c10.77,0,16.76-1.5,21.85-5.09,5.09-3.59,7.78-10.17,7.78-17.66s-2.69-14.36-7.78-17.96c-5.09-3.59-11.07-5.09-21.85-5.09h-19.75v45.79h19.75ZM1947.56,246.02h141.25v52.07h-80.2v30.52h67.93v49.08h-67.93v32.92h83.79v52.07h-144.84v-216.66Z"/>
  <g>
    <path class="cls-2" d="M508.65,403.13c-15.58,22.69-41.72,37.61-71.27,37.61s-55.68-14.91-71.27-37.61l-35.37-6.75c16.77,42.49,58.19,72.55,106.64,72.55s89.87-30.06,106.64-72.55l-35.38,6.75ZM437.39,239.73c-48.44,0-89.87,30.06-106.64,72.55l35.37-6.75c15.59-22.69,41.72-37.61,71.27-37.61s55.69,14.91,71.27,37.61l35.37,6.75c-16.77-42.49-58.19-72.55-106.64-72.55Z"/>
    <g>
      <path class="cls-4" d="M357.44,387.09l-27.44-5.24c-1.49-.28-2.9-.75-4.22-1.4-5.81-2.79-9.7-8.72-9.7-15.42v-21.41c0-6.7,3.89-12.63,9.7-15.43,1.31-.64,2.73-1.11,4.22-1.4l27.43-5.23c-4.15,10.11-6.45,21.17-6.45,32.76s2.29,22.66,6.45,32.76Z"/>
      <path class="cls-4" d="M558.69,343.63v21.41c0,6.71-3.89,12.64-9.7,15.43-1.31.64-2.73,1.11-4.22,1.39l-27.44,5.24c4.16-10.11,6.45-21.17,6.45-32.76s-2.29-22.65-6.45-32.76l27.44,5.23c1.49.29,2.9.75,4.22,1.39,5.81,2.8,9.7,8.73,9.7,15.44Z"/>
    </g>
    <path class="cls-1" d="M509.66,354.33c0,15.5-4.88,29.87-13.19,41.64-13.09,18.53-34.67,30.63-59.08,30.63s-46.01-12.11-59.08-30.65c-8.31-11.77-13.19-26.12-13.19-41.62s4.88-29.85,13.19-41.62c13.07-18.54,34.66-30.65,59.08-30.65s46,12.1,59.08,30.63c8.32,11.77,13.19,26.13,13.19,41.64Z"/>
  </g>
</svg>