<?xml version="1.0" encoding="UTF-8"?>
<svg id="Layer_1" data-name="Layer 1" xmlns="http://www.w3.org/2000/svg" xmlns:xlink="http://www.w3.org/1999/xlink" viewBox="0 0 708.66 708.66">
  <defs>
    <style>
      .cls-1 {
        fill: url(#linear-gradient-2);
      }

      .cls-2 {
        fill: url(#linear-gradient);
      }

      .cls-3 {
        fill: #263574;
      }
    </style>
    <linearGradient id="linear-gradient" x1="292.87" y1="137.62" x2="414.25" y2="565.62" gradientUnits="userSpaceOnUse">
      <stop offset="0" stop-color="#4589c8"/>
      <stop offset="1" stop-color="#376bb4"/>
    </linearGradient>
    <linearGradient id="linear-gradient-2" x1="336.25" y1="218.95" x2="372.36" y2="489.34" gradientUnits="userSpaceOnUse">
      <stop offset="0" stop-color="#3ebfed"/>
      <stop offset="1" stop-color="#3999d4"/>
    </linearGradient>
  </defs>
  <path class="cls-2" d="M480.92,441.01c-27.67,40.31-74.1,66.8-126.59,66.8s-98.91-26.49-126.59-66.8l-62.83-11.98c29.79,75.47,103.37,128.87,189.42,128.87s159.64-53.4,189.43-128.87l-62.84,11.98ZM354.33,150.77c-86.05,0-159.63,53.4-189.42,128.87l62.83-11.98c27.68-40.31,74.1-66.8,126.59-66.8s98.92,26.49,126.6,66.8l62.83,11.98c-29.79-75.47-103.37-128.87-189.43-128.87Z"/>
  <g>
    <path class="cls-3" d="M212.32,412.53l-48.74-9.31c-2.64-.5-5.16-1.34-7.49-2.48-10.32-4.96-17.23-15.49-17.23-27.4v-38.03c0-11.91,6.9-22.44,17.23-27.41,2.33-1.13,4.85-1.97,7.49-2.48l48.73-9.29c-7.38,17.96-11.45,37.61-11.45,58.19s4.07,40.24,11.46,58.2Z"/>
    <path class="cls-3" d="M569.8,335.32v38.03c0,11.92-6.9,22.45-17.23,27.41-2.33,1.13-4.85,1.97-7.49,2.47l-48.74,9.31c7.39-17.96,11.46-37.61,11.46-58.2s-4.07-40.23-11.46-58.19l48.74,9.29c2.64.51,5.16,1.34,7.49,2.47,10.32,4.97,17.23,15.5,17.23,27.42Z"/>
  </g>
  <path class="cls-1" d="M482.71,354.33c0,27.54-8.66,53.07-23.44,73.97-23.25,32.92-61.59,54.42-104.95,54.42s-81.72-21.51-104.95-54.45c-14.76-20.9-23.42-46.41-23.42-73.93s8.66-53.02,23.42-73.92c23.22-32.94,61.58-54.45,104.95-54.45s81.71,21.5,104.95,54.42c14.77,20.9,23.44,46.42,23.44,73.96Z"/>
</svg>